Coordinates
version=1
nRows=27
nColumns=38
inDegrees=no

Units are S.I. units (second, meters, Newtons, ...)
If the header above contains a line with 'inDegrees', this indicates whether rotational values are in degrees (yes) or radians (no).

endheader
time	pelvis_tilt	pelvis_list	pelvis_rotation	pelvis_tx	pelvis_ty	pelvis_tz	hip_flexion_r	hip_adduction_r	hip_rotation_r	knee_angle_r	ankle_angle_r	subtalar_angle_r	mtp_angle_r	hip_flexion_l	hip_adduction_l	hip_rotation_l	knee_angle_l	ankle_angle_l	subtalar_angle_l	mtp_angle_l	lumbar_extension	lumbar_bending	lumbar_rotation	arm_flex_r	arm_add_r	arm_rot_r	elbow_flex_r	pro_sup_r	wrist_flex_r	wrist_dev_r	arm_flex_l	arm_add_l	arm_rot_l	elbow_flex_l	pro_sup_l	wrist_flex_l	wrist_dev_l
0.52	0.0405439	1.49138	-1.47722	0.954984	0.945297	0.906504	0.341406	-0.0602266	-0.362109	0.143161	0.145446	0	0	-0.42085	0.0110019	-0.103034	0.0652003	0.307887	0	0	-0.235438	-0.0607833	-0.234692	-0.111306	-0.14069	-0.0372034	0.46432	1.24332	0	0	0.0180013	-0.40762	0.2157	0.658744	1.30042	0	0
0.53	0.0423615	1.49178	-1.47059	0.95498	0.933749	0.905325	0.338926	-0.0653192	-0.384714	0.172479	0.163223	0	0	-0.423649	0.00430499	-0.107468	0.0842091	0.314318	0	0	-0.235074	-0.0557874	-0.2438	-0.112649	-0.140947	-0.0361163	0.466817	1.24267	0	0	0.0130992	-0.40583	0.219397	0.65279	1.29577	0	0
0.54	0.0176694	1.49142	-1.43789	0.954761	0.922015	0.904505	0.329937	-0.0642745	-0.399617	0.182776	0.172468	0	0	-0.426541	-0.005151	-0.111926	0.104102	0.318559	0	0	-0.234927	-0.0487652	-0.251805	-0.113797	-0.14133	-0.0348432	0.468185	1.24123	0	0	0.00896868	-0.403386	0.223835	0.644971	1.29169	0	0
0.55	-0.0340091	1.49065	-1.37992	0.954144	0.910155	0.904001	0.317197	-0.0566877	-0.40771	0.177985	0.161553	0	0	-0.428111	-0.0171003	-0.118395	0.126468	0.321394	0	0	-0.234691	-0.0399093	-0.257605	-0.114265	-0.141712	-0.0331304	0.467818	1.23978	0	0	0.00520067	-0.400564	0.228794	0.635955	1.28846	0	0
0.56	-0.102588	1.49054	-1.30716	0.953109	0.89815	0.903626	0.301655	-0.0440622	-0.410339	0.159622	0.124387	0	0	-0.425998	-0.0307223	-0.12891	0.153901	0.324001	0	0	-0.233091	-0.0303818	-0.26092	-0.114534	-0.141938	-0.0320126	0.466455	1.23875	0	0	0.00190497	-0.397456	0.234677	0.62575	1.28594	0	0
0.57	-0.17604	1.49156	-1.23152	0.951725	0.885953	0.903267	0.285967	-0.0301891	-0.411602	0.136238	0.0747918	0	0	-0.419529	-0.0448717	-0.143407	0.187261	0.325428	0	0	-0.229363	-0.0216383	-0.261898	-0.115003	-0.141695	-0.0336226	0.464812	1.23686	0	0	-0.00203735	-0.394454	0.241037	0.615635	1.28457	0	0
0.58	-0.249674	1.4931	-1.15781	0.950028	0.873667	0.902993	0.27402	-0.0178954	-0.411665	0.122029	0.0367869	0	0	-0.40942	-0.0591472	-0.160681	0.2265	0.324191	0	0	-0.224597	-0.0138905	-0.260494	-0.115514	-0.140999	-0.0358533	0.46259	1.23459	0	0	-0.00645364	-0.391563	0.247865	0.606418	1.28408	0	0
0.59	-0.323236	1.4932	-1.08556	0.948233	0.861409	0.903099	0.267462	-0.00867717	-0.414111	0.125376	0.0197034	0	0	-0.397484	-0.0743699	-0.178897	0.271056	0.31927	0	0	-0.22116	-0.00574932	-0.257575	-0.114944	-0.140632	-0.0363868	0.459104	1.23221	0	0	-0.0108318	-0.388396	0.254913	0.598037	1.2842	0	0
0.6	-0.393319	1.49058	-1.01756	0.946529	0.849133	0.903778	0.264613	-0.00234129	-0.420728	0.144612	0.0161719	0	0	-0.384977	-0.0913281	-0.197465	0.320092	0.308323	0	0	-0.220244	0.00381683	-0.25326	-0.113479	-0.141359	-0.0349328	0.455068	1.22948	0	0	-0.0145253	-0.3843	0.261534	0.589528	1.28565	0	0
0.61	-0.463983	1.48581	-0.949591	0.944827	0.83683	0.904943	0.262598	0.00340323	-0.429644	0.170822	0.0194249	0	0	-0.370226	-0.110715	-0.215973	0.374527	0.289596	0	0	-0.220947	0.0150741	-0.247695	-0.111649	-0.143162	-0.0330466	0.45166	1.22594	0	0	-0.0177597	-0.379227	0.267028	0.58108	1.28848	0	0
0.62	-0.541617	1.48097	-0.876218	0.942896	0.824607	0.906287	0.261543	0.0100579	-0.437394	0.198034	0.0284825	0	0	-0.350285	-0.131729	-0.233682	0.434713	0.261675	0	0	-0.220907	0.0270112	-0.240526	-0.10971	-0.145573	-0.02978	0.449037	1.22207	0	0	-0.0213933	-0.37378	0.271145	0.573816	1.29214	0	0
0.63	-0.627312	1.47722	-0.796606	0.940663	0.812426	0.907571	0.260939	0.0183529	-0.44292	0.221103	0.0389411	0	0	-0.324387	-0.153683	-0.25023	0.499637	0.223002	0	0	-0.218485	0.0384339	-0.231452	-0.108781	-0.14816	-0.024936	0.447731	1.21801	0	0	-0.0259543	-0.368539	0.27455	0.568309	1.29663	0	0
0.64	-0.718026	1.47504	-0.713867	0.93816	0.800304	0.908637	0.260308	0.0280392	-0.445021	0.23732	0.045828	0	0	-0.293156	-0.175534	-0.264702	0.567844	0.172858	0	0	-0.213312	0.0484451	-0.220849	-0.109099	-0.150929	-0.0176223	0.448175	1.21175	0	0	-0.0319059	-0.364269	0.279402	0.565062	1.30264	0	0
0.65	-0.82083	1.47438	-0.619117	0.935596	0.788294	0.909319	0.260074	0.0387712	-0.445145	0.247063	0.0491159	0	0	-0.255938	-0.19775	-0.275307	0.63919	0.111088	0	0	-0.204751	0.0575144	-0.210667	-0.111272	-0.154954	-0.00168693	0.451535	1.19284	0	0	-0.0391366	-0.361736	0.288603	0.564392	1.31168	0	0
0.66	-0.901169	1.47349	-0.546937	0.933009	0.776311	0.909958	0.2543	0.0506693	-0.440236	0.248043	0.0501432	0	0	-0.220055	-0.217555	-0.280248	0.707513	0.049295	0	0	-0.197127	0.0647868	-0.200771	-0.114106	-0.158546	0.0138196	0.455001	1.17446	0	0	-0.0472555	-0.360234	0.296136	0.569317	1.31037	0	0
0.67	-0.976922	1.47269	-0.478873	0.930416	0.764396	0.910411	0.246144	0.063455	-0.432311	0.243626	0.0509007	0	0	-0.182925	-0.236522	-0.281665	0.775065	-0.0102078	0	0	-0.188965	0.0711897	-0.191369	-0.117899	-0.161925	0.0284253	0.458888	1.15889	0	0	-0.055698	-0.360152	0.306898	0.575505	1.30633	0	0
0.68	-1.03527	1.47161	-0.426831	0.927968	0.752683	0.910915	0.235574	0.0755847	-0.423084	0.236524	0.0511957	0	0	-0.145308	-0.25364	-0.278187	0.841351	-0.0698522	0	0	-0.182244	0.0766596	-0.183676	-0.121478	-0.164686	0.0385895	0.463116	1.14657	0	0	-0.0641785	-0.361474	0.320131	0.58181	1.30562	0	0
0.69	-1.06953	1.47031	-0.397792	0.9257	0.741217	0.911637	0.223212	0.0861341	-0.413462	0.230029	0.0515594	0	0	-0.108194	-0.267781	-0.269754	0.905242	-0.132043	0	0	-0.177974	0.0809697	-0.17707	-0.124718	-0.166626	0.0409155	0.468131	1.13795	0	0	-0.0715235	-0.362665	0.33022	0.588798	1.30524	0	0
0.7	-1.07497	1.46915	-0.396775	0.923677	0.730088	0.912717	0.208916	0.0943232	-0.403331	0.22522	0.0530228	0	0	-0.0728003	-0.278891	-0.259405	0.965291	-0.19046	0	0	-0.176939	0.0837242	-0.170987	-0.127514	-0.16823	0.0393428	0.473389	1.13405	0	0	-0.076806	-0.36363	0.338855	0.595599	1.30352	0	0
0.71	-1.05499	1.46789	-0.42009	0.921919	0.719122	0.914182	0.192188	0.100396	-0.394766	0.221826	0.0565671	0	0	-0.0404219	-0.287296	-0.247828	1.01947	-0.238551	0	0	-0.178898	0.0853609	-0.16602	-0.130253	-0.16948	0.0320255	0.480419	1.13284	0	0	-0.0808455	-0.364068	0.345549	0.601409	1.30175	0	0
0.72	-1.01667	1.46602	-0.461164	0.920328	0.708232	0.915978	0.173202	0.105423	-0.386982	0.218711	0.0613991	0	0	-0.0121454	-0.292942	-0.235651	1.06633	-0.272526	0	0	-0.183216	0.0864637	-0.162638	-0.132057	-0.170866	0.0244817	0.487634	1.13412	0	0	-0.0850648	-0.364055	0.349527	0.607091	1.30086	0	0
0.73	-0.970644	1.46429	-0.509856	0.918828	0.697439	0.917954	0.1531	0.109402	-0.37904	0.215151	0.0667088	0	0	0.0137221	-0.295911	-0.224052	1.10846	-0.280653	0	0	-0.188435	0.0864745	-0.159885	-0.133297	-0.171925	0.0154262	0.494587	1.13987	0	0	-0.0892097	-0.364054	0.352937	0.612856	1.2986	0	0
0.74	-0.929123	1.46409	-0.554235	0.917374	0.686783	0.919917	0.133823	0.111885	-0.371413	0.210216	0.0710487	0	0	0.04144	-0.296372	-0.212171	1.15228	-0.253841	0	0	-0.191884	0.084572	-0.158008	-0.133353	-0.173061	0.00867364	0.499682	1.14727	0	0	-0.0934907	-0.363672	0.35475	0.617266	1.29624	0	0
0.75	-0.89276	1.46589	-0.594425	0.915859	0.676257	0.921851	0.115293	0.11311	-0.362445	0.202533	0.0736643	0	0	0.0712057	-0.294132	-0.200948	1.19654	-0.205394	0	0	-0.193077	0.0804212	-0.156084	-0.132143	-0.174164	0.00489095	0.501586	1.15497	0	0	-0.0977264	-0.363047	0.355564	0.620635	1.29258	0	0
0.76	-0.852484	1.46965	-0.638772	0.914374	0.665953	0.923799	0.0978086	0.111928	-0.354196	0.194461	0.0763411	0	0	0.101835	-0.28837	-0.190365	1.23596	-0.153653	0	0	-0.193522	0.0740077	-0.154319	-0.129578	-0.174965	0.00257382	0.500652	1.1625	0	0	-0.101309	-0.362234	0.35518	0.623284	1.28786	0	0
0.77	-0.800421	1.47514	-0.696048	0.912898	0.655997	0.925796	0.0815361	0.108075	-0.345127	0.187054	0.0793384	0	0	0.13178	-0.27932	-0.182732	1.26728	-0.109036	0	0	-0.19415	0.0653014	-0.151745	-0.125675	-0.175599	0.00129604	0.497935	1.16979	0	0	-0.103694	-0.361129	0.354848	0.624411	1.28457	0	0
0.78	-0.696922	1.48836	-0.805957	0.911372	0.646004	0.927106	0.0686134	0.0984553	-0.346226	0.17444	0.0798268	0	0	0.162228	-0.259948	-0.179337	1.28971	-0.0759411	0	0	-0.190752	0.0468547	-0.149182	-0.123178	-0.17532	0.00221536	0.495142	1.17232	0	0	-0.107159	-0.361997	0.356076	0.6261	1.28557	0	0
